<?xml version="1.0" encoding="UTF-8"?>
<svg version="1.1" xmlns="http://www.w3.org/2000/svg" width="233" height="170">
<path d="M0 0 C76.89 0 153.78 0 233 0 C233 56.1 233 112.2 233 170 C156.11 170 79.22 170 0 170 C0 113.9 0 57.8 0 0 Z " fill="#FAFAFA" transform="translate(0,0)"/>
<path d="M0 0 C13.02858387 -0.63933369 23.83024065 4.35899632 33.59375 12.61328125 C41.8978785 20.40567074 45.7170401 29.92468526 46.62109375 41.203125 C46.96122299 55.36324233 42.6550987 66.64132438 33.0703125 76.98046875 C29.29388424 80.5818308 25.07764331 83.004997 20.3828125 85.23046875 C19.35027344 85.76414062 18.31773438 86.2978125 17.25390625 86.84765625 C12.58349082 88.81863425 7.94424474 88.66942097 2.9453125 88.60546875 C1.59083008 88.62287109 1.59083008 88.62287109 0.20898438 88.640625 C-10.61121865 88.5936147 -20.10801877 84.29365715 -28.078125 76.96875 C-37.91721109 66.55762402 -42.03364904 55.5789855 -42.05834961 41.37451172 C-41.71224046 29.71538389 -35.76956765 21.07911649 -28.3046875 12.60546875 C-19.7258723 5.0241902 -11.42255527 1.00586681 0 0 Z " fill="#FBFBFB" transform="translate(109.6171875,39.76953125)"/>
<path d="M0 0 C7.35898894 4.5485208 11.31083829 10.64675146 13.51953125 18.94140625 C14.7707324 31.33478123 14.57205614 42.96458014 6.45703125 52.94140625 C4.53800404 55.05895351 2.95092218 56.32047896 0.51953125 57.94140625 C-0.47046875 57.94140625 -1.46046875 57.94140625 -2.48046875 57.94140625 C-2.03689027 87.36772872 -2.03689027 87.36772872 2.04956055 116.44775391 C2.91346945 121.03163213 2.78809095 125.66459329 2.83203125 130.31640625 C2.86103516 131.3321875 2.89003906 132.34796875 2.91992188 133.39453125 C2.97416613 139.82038962 2.40395174 143.74818102 -1.48046875 148.94140625 C-5.01477531 151.29761062 -6.31618162 151.43132238 -10.48046875 150.94140625 C-16.18816106 147.81832933 -16.18816106 147.81832933 -17.48046875 143.94140625 C-18.48895254 129.98795847 -16.78735843 116.17770482 -15.26223755 102.32992554 C-13.63757463 87.52316513 -12.70741219 72.84337316 -12.48046875 57.94140625 C-13.10373047 57.80041504 -13.72699219 57.65942383 -14.36914062 57.51416016 C-19.26823387 56.18515082 -23.17106174 51.84163324 -25.79296875 47.62890625 C-31.35405641 36.79313888 -29.99983854 25.18931209 -26.48046875 13.94140625 C-23.89640528 8.30594869 -20.07823009 4.03941092 -15.48046875 -0.05859375 C-10.29380823 -1.78748059 -5.11217309 -2.18173056 0 0 Z " fill="#46494D" transform="translate(216.48046875,12.05859375)"/>
<path d="M0 0 C0.99 0.33 1.98 0.66 3 1 C3.33 12.88 3.66 24.76 4 37 C4.99 37.33 5.98 37.66 7 38 C7.0501123 37.09757568 7.10022461 36.19515137 7.15185547 35.26538086 C7.34311056 31.88979353 7.541509 28.51477883 7.74462891 25.13989258 C7.83079135 23.68432812 7.91417479 22.22859621 7.99462891 20.77270508 C8.11134949 18.66957311 8.23833953 16.56726353 8.3671875 14.46484375 C8.47716064 12.57173462 8.47716064 12.57173462 8.58935547 10.64038086 C9.01700828 6.84922088 9.85205972 3.62561208 11 0 C12.32 0.33 13.64 0.66 15 1 C15.99 13.54 16.98 26.08 18 39 C18.99 38.505 18.99 38.505 20 38 C20.66 25.79 21.32 13.58 22 1 C23.32 0.67 24.64 0.34 26 0 C30.38977461 25.83662555 30.38977461 25.83662555 30.4375 38.25 C30.44716797 39.03922852 30.45683594 39.82845703 30.46679688 40.64160156 C30.37693957 46.72811237 29.01306456 51.43160728 25.1875 56.3125 C22.59280088 58.31412503 20.10885352 59.02874835 17 60 C17.25610186 65.79240798 17.52774518 71.58392878 17.8125 77.375 C17.87627838 78.6721846 17.87627838 78.6721846 17.94134521 79.99557495 C18.48231777 90.74731099 19.23734218 101.38299277 20.625 112.0625 C21.63053961 119.96850842 22.33553503 127.77647934 22.4375 135.75 C22.4595752 136.60215088 22.48165039 137.45430176 22.50439453 138.33227539 C22.48588753 143.68787362 21.5828713 146.77571052 18 151 C14.47427193 153.35048538 13.14986355 153.66397817 9 153 C2.48238332 146.48238332 2.71733708 140.60987549 2.67211914 131.91870117 C2.78923145 119.61084336 4.17083749 107.40010091 5.48901367 95.17333984 C6.74160419 83.45508057 7.52959633 71.77579798 8 60 C6.8238916 59.80639893 6.8238916 59.80639893 5.62402344 59.60888672 C2.35228057 58.84970113 1.36821304 57.68372638 -0.75 55.125 C-1.34296875 54.42632812 -1.9359375 53.72765625 -2.546875 53.0078125 C-8.95615564 44.1519785 -4.63295817 25.64084347 -3.625 15.5625 C-3.49899414 14.26393066 -3.37298828 12.96536133 -3.24316406 11.62744141 C-3.11393555 10.4110498 -2.98470703 9.1946582 -2.8515625 7.94140625 C-2.73635254 6.84513916 -2.62114258 5.74887207 -2.50244141 4.61938477 C-2 2 -2 2 0 0 Z " fill="#484A4E" transform="translate(7,10)"/>
<path d="M0 0 C0.79921875 0.42023437 1.5984375 0.84046875 2.421875 1.2734375 C18.15985602 10.11994236 30.69044947 24.62328919 36 42 C37.70602673 48.84025227 38.35788514 55.39826431 38.3125 62.4375 C38.30686035 63.36054932 38.3012207 64.28359863 38.29541016 65.23461914 C38.17623932 71.91703555 37.48971879 77.75221512 35 84 C34.58621094 85.11503906 34.17242187 86.23007813 33.74609375 87.37890625 C25.37739219 108.51728866 10.33643692 121.17532993 -10 130 C-25.64406924 135.9353127 -44.99445215 134.20058403 -60.0546875 127.4765625 C-78.9932947 117.98214138 -89.14210666 104.63212048 -98 86 C-98.38285156 85.30003906 -98.76570313 84.60007812 -99.16015625 83.87890625 C-105.31738089 70.10390601 -103.04885479 50.86454419 -98 37 C-90.15608119 18.7517122 -76.21006089 4.69242679 -58.0703125 -3.2890625 C-40.06928877 -10.2202046 -17.01766513 -8.99854955 0 0 Z M-73 12 C-73.99386719 12.70382813 -73.99386719 12.70382813 -75.0078125 13.421875 C-86.33302664 21.95529216 -94.48158244 37.50389151 -96.7109375 51.2734375 C-98.60257161 69.11614845 -95.07672443 87.49456102 -84 102 C-73.67284753 114.67064925 -59.6061642 124.89642687 -43 127 C-29.28841072 127.9777538 -16.45993421 127.76239715 -4.0625 121.375 C-3.3708374 121.02091064 -2.6791748 120.66682129 -1.96655273 120.30200195 C14.43825321 111.65247371 24.38531311 98.24651869 31.09765625 81.21484375 C35.96270909 65.4882776 34.37067512 47.59856754 27 33 C17.75467041 16.27850883 3.37363141 4.71992519 -15.06567383 -0.59545898 C-36.41527735 -5.86734494 -55.98152021 -1.40265547 -73 12 Z " fill="#535458" transform="translate(144,22)"/>
<path d="M0 0 C1.05316406 0.51949219 2.10632813 1.03898437 3.19140625 1.57421875 C10.21269873 5.34409919 15.22532536 9.63746845 20 16 C20.49242187 16.62519531 20.98484375 17.25039063 21.4921875 17.89453125 C28.61418867 27.90326071 29.03581593 41.15874059 28 53 C26.33089551 62.04098264 22.71428385 68.88220784 17 76 C16.36707031 76.8353125 15.73414063 77.670625 15.08203125 78.53125 C7.11202976 87.98160825 -4.53069431 93.05695097 -16.6484375 94.40625 C-31.44984512 94.79834027 -44.48290453 90.41695848 -55.375 80.1875 C-59.37506906 75.90526839 -62.17276305 71.1007717 -65 66 C-65.40347656 65.38125 -65.80695313 64.7625 -66.22265625 64.125 C-69.253254 59.43246155 -69.80236829 55.43487212 -70 50 C-70.0515625 48.98421875 -70.103125 47.9684375 -70.15625 46.921875 C-70.54271144 33.33131451 -66.69694032 21.90098968 -58.19921875 11.3203125 C-54.03155609 6.9231693 -49.20209469 3.10364747 -44 0 C-42.68 0 -41.36 0 -40 0 C-40 -0.66 -40 -1.32 -40 -2 C-26.06141633 -6.9611908 -13.22417633 -6.58707396 0 0 Z M-29.40234375 0.31640625 C-33.43053241 1.08180583 -36.48191532 2.44291698 -40.125 4.3125 C-41.30320312 4.90675781 -42.48140625 5.50101563 -43.6953125 6.11328125 C-53.59045179 11.76263382 -60.09699749 21.14557793 -64.15625 31.69140625 C-67.34004172 44.17599692 -64.98777813 56.77076246 -58.515625 67.765625 C-54.31070374 73.96463263 -49.52354539 79.23084044 -43 83 C-42.195625 83.53625 -41.39125 84.0725 -40.5625 84.625 C-34.03244946 88.12892956 -27.7638993 88.33818564 -20.5 88.3125 C-19.58863281 88.32861328 -18.67726562 88.34472656 -17.73828125 88.36132812 C-11.99660472 88.36547075 -8.09232143 87.6659059 -3 85 C-2.13375 84.55140625 -1.2675 84.1028125 -0.375 83.640625 C10.53516708 77.25243507 18.05488229 68.95114892 21.875 56.6875 C24.62911493 45.04808572 23.8674099 31.95392557 17.5625 21.5625 C16.74173716 20.35167165 15.88447482 19.16510139 15 18 C14.38769531 17.18402344 13.77539062 16.36804688 13.14453125 15.52734375 C5.59396316 6.62895112 -5.72647592 0.83906022 -17.3125 -0.3359375 C-21.39412094 -0.38695776 -25.34112901 -0.06127273 -29.40234375 0.31640625 Z " fill="#55575B" transform="translate(133,40)"/>
<path d="M0 0 C0.66 0 1.32 0 2 0 C1.83701416 0.55719727 1.67402832 1.11439453 1.50610352 1.68847656 C0.9572825 4.19510339 0.88670615 6.41980924 0.90234375 8.984375 C0.90556641 9.91894531 0.90878906 10.85351562 0.91210938 11.81640625 C0.92048828 12.78449219 0.92886719 13.75257812 0.9375 14.75 C0.94201172 15.73355469 0.94652344 16.71710937 0.95117188 17.73046875 C0.96293517 20.15370791 0.97937316 22.57682273 1 25 C-3.50601248 19.31850601 -3.58870385 14.05463451 -3 7 C-2.23782988 4.41659778 -1.2752431 2.39108081 0 0 Z " fill="#C4C6C7" transform="translate(196,27)"/>
<path d="M0 0 C0.66 0.33 1.32 0.66 2 1 C-3.28 6.28 -8.56 11.56 -14 17 C-14.66 16.67 -15.32 16.34 -16 16 C-14.08743854 13.89197235 -12.17019745 11.78855326 -10.25 9.6875 C-9.71117187 9.09259766 -9.17234375 8.49769531 -8.6171875 7.88476562 C-5.91859521 4.93935086 -3.3371486 2.24366544 0 0 Z " fill="#646669" transform="translate(71,27)"/>
<path d="M0 0 C0.66 0.33 1.32 0.66 2 1 C-1.63 4.63 -5.26 8.26 -9 12 C-9.66 11.67 -10.32 11.34 -11 11 C-7.6381774 6.74828319 -4.25171681 3.3618226 0 0 Z " fill="#DBDBDC" transform="translate(72,33)"/>
<path d="M0 0 C0.33 0 0.66 0 1 0 C1.06058594 0.75925781 1.12117187 1.51851562 1.18359375 2.30078125 C1.26738281 3.29464844 1.35117188 4.28851563 1.4375 5.3125 C1.55931641 6.79169922 1.55931641 6.79169922 1.68359375 8.30078125 C1.91812559 11.09375599 1.91812559 11.09375599 3 14 C1.5625 17.1875 1.5625 17.1875 0 20 C-1.19799449 15.85340627 -0.8896192 12.00630953 -0.5625 7.75 C-0.51029297 7.00492188 -0.45808594 6.25984375 -0.40429688 5.4921875 C-0.2751783 3.66105139 -0.13834886 1.83046187 0 0 Z " fill="#B8B8BA" transform="translate(230,35)"/>
</svg>
